Coordinates
version=1
nRows=16
nColumns=40
inDegrees=yes

Units are S.I. units (second, meters, Newtons, ...)
Angles are in degrees.

endheader
time	pelvis_tilt	pelvis_list	pelvis_rotation	pelvis_tx	pelvis_ty	pelvis_tz	hip_flexion_r	hip_adduction_r	hip_rotation_r	knee_angle_r	knee_angle_r_beta	ankle_angle_r	subtalar_angle_r	mtp_angle_r	hip_flexion_l	hip_adduction_l	hip_rotation_l	knee_angle_l	knee_angle_l_beta	ankle_angle_l	subtalar_angle_l	mtp_angle_l	lumbar_extension	lumbar_bending	lumbar_rotation	arm_flex_r	arm_add_r	arm_rot_r	elbow_flex_r	pro_sup_r	wrist_flex_r	wrist_dev_r	arm_flex_l	arm_add_l	arm_rot_l	elbow_flex_l	pro_sup_l	wrist_flex_l	wrist_dev_l
     57.28328571	     -3.46104279	     -4.60684224	      6.82777566	      1.14903463	      0.92320489	      0.47341254	      0.95911836	      3.33762576	    -16.28210229	     12.25121377	     12.25121377	     17.09341100	      3.96564028	     -5.68619390	     28.71185146	     -7.84884341	     -3.79735593	     19.86073680	     19.86073680	      1.08478980	     -9.45486809	      3.47992011	     -9.01948039	      6.07454922	      3.90291361	     38.42707419	    -18.53607999	     -4.94557568	     99.77976004	     44.32821961	      0.00000000	      0.00000000	     -8.49595427	     -6.04657319	     -3.35297624	     26.05989017	     44.49657984	      0.00000000	      0.00000000
     57.29657143	     -3.40255315	     -4.68978983	      6.75836933	      1.15038490	      0.92219016	      0.47153390	      0.46419037	      3.36243481	    -16.07172751	     12.33706006	     12.33706006	     17.54670697	      3.84560320	     -5.44171999	     28.39060592	     -7.71566470	     -3.25291048	     20.71565412	     20.71565412	      1.00466230	    -10.84952461	      3.40956185	     -8.85131127	      6.02431544	      3.90378480	     38.03373682	    -18.44232740	     -4.90075157	    100.14672172	     44.32768239	      0.00000000	      0.00000000	     -8.56033156	     -6.07002751	     -3.40498235	     26.26749719	     44.52705755	      0.00000000	      0.00000000
     57.30985714	     -3.28749214	     -4.59000240	      6.64942266	      1.15185141	      0.92148810	      0.46954015	     -0.09330251	      3.16459143	    -15.86907426	     12.47359846	     12.47359846	     17.90373141	      3.75555112	     -5.40520935	     27.92150139	     -7.51259081	     -3.14333967	     21.43181282	     21.43181282	      1.22050025	    -11.50179217	      3.24459168	     -8.77507382	      5.77395358	      3.85948859	     37.41443647	    -18.29472739	     -4.78680268	    100.10854518	     44.32703706	      0.00000000	      0.00000000	     -8.48423569	     -6.17309237	     -3.43846931	     26.35252311	     44.54117832	      0.00000000	      0.00000000
     57.32314286	     -3.24610383	     -4.49918394	      6.56781707	      1.15326969	      0.92081586	      0.46740155	     -0.57311283	      2.96057348	    -15.66915268	     12.58972984	     12.58972984	     18.22556935	      3.66860688	     -5.40446636	     27.54633837	     -7.28936253	     -2.91635987	     22.05090928	     22.05090928	      1.62939972	    -12.00245141	      3.01512656	     -8.63943193	      5.55564994	      3.75474279	     36.82504653	    -18.16327607	     -4.67528853	    100.02353651	     44.32583626	      0.00000000	      0.00000000	     -8.29678513	     -6.23612071	     -3.45794599	     26.45331128	     44.55102623	      0.00000000	      0.00000000
     57.33642857	     -3.22149847	     -4.48473548	      6.52903469	      1.15442433	      0.92020082	      0.46516347	     -0.84434416	      2.82560137	    -15.29041978	     13.02246469	     13.02246469	     18.64318285	      3.05627667	     -4.69908326	     27.47852531	     -7.04318979	     -2.20861181	     22.99434651	     22.99434651	      1.83359174	    -13.39791817	      3.02518073	     -8.50309013	      5.35376960	      3.86569579	     35.75936458	    -18.36349389	     -4.65163310	     99.96607883	     44.33951007	      0.00000000	      0.00000000	     -8.01287493	     -6.37545504	     -3.61526939	     26.79320843	     44.60897589	      0.00000000	      0.00000000
     57.34971429	     -3.16534828	     -4.35352173	      6.48488456	      1.15560814	      0.91999677	      0.46270289	     -1.27779976	      2.53823964	    -15.17287743	     13.21230869	     13.21230869	     18.76098601	      2.93595650	     -4.63467705	     27.15808974	     -6.78082666	     -1.99169937	     23.53414981	     23.53414981	      2.43023328	    -13.71607746	      2.72373318	     -8.51192217	      5.08942895	      3.62969710	     34.97212131	    -18.19242131	     -4.50120967	     99.77281650	     44.33944409	      0.00000000	      0.00000000	     -7.61625087	     -6.46233298	     -3.62903845	     26.93673522	     44.62109267	      0.00000000	      0.00000000
     57.36300000	     -3.00941815	     -4.25248235	      6.48114007	      1.15677898	      0.91998695	      0.46031546	     -1.63464933	      2.27038669	    -15.00747984	     13.76308413	     13.76308413	     18.92480862	      2.55794756	     -4.40241749	     26.97019834	     -6.58568762	     -1.79096678	     24.42105823	     24.42105823	      2.94159118	    -14.23661868	      2.50799060	     -8.52048300	      4.77481203	      3.57082344	     33.64168129	    -18.18355000	     -4.31313140	     99.25844354	     44.34965647	      0.00000000	      0.00000000	     -7.19554520	     -6.69477807	     -3.70204522	     27.10476234	     44.64906900	      0.00000000	      0.00000000
     57.37628571	     -2.95188516	     -4.16201436	      6.51684944	      1.15771819	      0.92013903	      0.45757442	     -1.91287021	      1.98147781	    -14.91527788	     14.21016710	     14.21016710	     18.95472732	      2.28968789	     -4.28393742	     26.72167859	     -6.33430894	     -1.53663337	     24.92785469	     24.92785469	      3.57397968	    -14.47093771	      2.24240431	     -8.54045391	      4.59744153	      3.34756494	     32.59510925	    -18.08456272	     -4.12087361	     98.84586830	     44.35480850	      0.00000000	      0.00000000	     -6.56031739	     -6.77974522	     -3.72251829	     27.33682445	     44.66710209	      0.00000000	      0.00000000
     57.38957143	     -2.83583513	     -4.09998957	      6.53108291	      1.15862261	      0.92053748	      0.45487817	     -2.09476858	      1.68624368	    -14.80806618	     14.94850337	     14.94850337	     18.95249812	      1.93221069	     -4.18795654	     26.43173401	     -6.15243985	     -1.39257819	     25.45612324	     25.45612324	      4.20933034	    -14.69535369	      2.00416982	     -8.61117078	      4.40971027	      3.19512292	     31.21214387	    -18.02603718	     -3.86687886	     98.20395909	     44.36415423	      0.00000000	      0.00000000	     -5.90295899	     -6.95542098	     -3.76287734	     27.57275732	     44.68913575	      0.00000000	      0.00000000
     57.40285714	     -3.04634794	     -3.95602750	      6.37482482	      1.15913101	      0.92055745	      0.45224224	     -1.38696252	      1.12407457	    -14.41250424	     16.68394592	     16.68394592	     19.18824059	      1.02843928	     -3.94859587	     26.42247105	     -5.94126848	     -1.61734557	     25.88593573	     25.88593573	      4.91830834	    -14.68709017	      2.02183494	     -8.28806288	      4.08044849	      3.63985784	     29.67516904	    -18.70229858	     -3.66936152	     96.77562832	     44.40687209	      0.00000000	      0.00000000	     -5.02629558	     -7.10215756	     -3.86952390	     27.84478063	     44.73641309	      0.00000000	      0.00000000
     57.41614286	     -3.06725572	     -3.89850591	      6.30091054	      1.15968868	      0.92109784	      0.44952425	     -0.98715866	      0.70201085	    -14.15575695	     18.18366524	     18.18366524	     19.19781957	      0.43193329	     -3.74433024	     26.12456173	     -5.79544905	     -1.71842643	     26.13804499	     26.13804499	      5.64572110	    -14.53487491	      2.09151973	     -8.26775168	      3.90522304	      3.66644031	     28.24784737	    -18.82007804	     -3.33228645	     95.61350599	     44.43839177	      0.00000000	      0.00000000	     -4.12106342	     -7.21817598	     -3.94306529	     27.99646092	     44.78146142	      0.00000000	      0.00000000
     57.42942857	     -3.03311514	     -3.80367560	      6.18216070	      1.16025744	      0.92183650	      0.44684001	     -0.51088728	      0.18278767	    -13.95183406	     19.92595139	     19.92595139	     19.08201402	     -0.09051534	     -3.90591107	     25.67307762	     -5.64736456	     -1.96235943	     26.25435229	     26.25435229	      6.25693827	    -14.37634755	      2.03223700	     -8.29857176	      3.69323268	      3.67635076	     26.72597003	    -18.84035995	     -2.92313306	     94.38516337	     44.46596564	      0.00000000	      0.00000000	     -3.25991121	     -7.36928598	     -4.00722688	     28.23115863	     44.81807863	      0.00000000	      0.00000000
     57.44271429	     -3.06768493	     -3.74551738	      6.04095895	      1.16060315	      0.92253560	      0.44420284	      0.31672423	     -0.37454278	    -13.72531568	     22.13072618	     22.13072618	     18.81756235	     -0.72419397	     -4.37042540	     25.22493401	     -5.53066104	     -2.23380275	     26.22093032	     26.22093032	      6.81353267	    -14.13047826	      1.94915094	     -8.26894645	      3.52633242	      3.75861991	     25.25803071	    -18.91236799	     -2.45688156	     92.86979649	     44.50171063	      0.00000000	      0.00000000	     -2.31587984	     -7.49597052	     -4.07354305	     28.53274740	     44.85656087	      0.00000000	      0.00000000
     57.45600000	     -3.10322326	     -3.72158187	      5.86061021	      1.16081321	      0.92326521	      0.44169808	      1.30965491	     -0.89725691	    -13.33193411	     24.52947008	     24.52947008	     18.00165921	     -1.76860986	     -6.01542739	     24.78162194	     -5.46708438	     -2.55571863	     26.19215748	     26.19215748	      7.38569187	    -13.87318635	      2.06023155	     -8.20749619	      3.39868874	      3.50014052	     24.28815912	    -18.73092864	     -1.46666350	     90.10435375	     44.58713444	      0.00000000	      0.00000000	     -1.46067491	     -7.63564242	     -4.27477908	     28.69680591	     44.95143646	      0.00000000	      0.00000000
     57.46928571	     -3.09966357	     -3.59688929	      5.63121094	      1.16091470	      0.92407129	      0.43922837	      2.54110018	     -1.64252425	    -13.02419467	     27.47136120	     27.47136120	     17.37598000	     -2.46737488	     -6.92141237	     24.16265545	     -5.30747239	     -2.96914961	     25.94598117	     25.94598117	      7.76588011	    -13.64761192	      1.87736429	     -8.29760821	      3.16396486	      3.57989636	     22.71713861	    -18.69710382	     -0.94077175	     88.72236608	     44.61462839	      0.00000000	      0.00000000	     -0.51704282	     -7.79576706	     -4.36720476	     29.25007255	     44.98947391	      0.00000000	      0.00000000
     57.48257143	     -3.10691089	     -3.51997258	      5.37351058	      1.16085470	      0.92477808	      0.43691085	      3.99729274	     -2.35687730	    -12.62748439	     30.70852883	     30.70852883	     16.43999752	     -3.34503181	     -8.01761360	     23.57487249	     -5.19122778	     -3.32392380	     25.71089402	     25.71089402	      8.15811271	    -13.51481141	      1.65074100	     -8.40248876	      2.96860724	      3.68285699	     21.20114688	    -18.64412579	     -0.40154058	     86.99807634	     44.65210869	      0.00000000	      0.00000000	      0.48308372	     -7.94507255	     -4.43457435	     29.85389475	     45.02276551	      0.00000000	      0.00000000
